# xmcd CD database file
#
# Track frame offsets:
#	150
#	51514
#	133767
#
# Disc length: 2577 seconds
#
# Revision: 0
# Processed by: cddbd v1.5.2PL0 Copyright (c) Steve Scherf et al.
# Submitted via: CDex 1.70beta2
#
DISCID=290a0f03
DTITLE=Paul Flaherty - Chris Corsano - The Beloved Music
DYEAR=2006
DGENRE=Jazz
TTITLE0=The Great Pine Tar Scandal
TTITLE1=A Lean and Tortured Heart
TTITLE2=What Do You Mean This is a Dry Country?
EXTD=YEAR: 2006
EXTT0=
EXTT1=
EXTT2=
PLAYORDER=
